<mxfile host="app.diagrams.net" modified="2021-11-25T20:35:31.612Z" agent="5.0 (Windows NT 10.0; Win64; x64) AppleWebKit/537.36 (KHTML, like Gecko) Chrome/96.0.4664.45 Safari/537.36" etag="gPTekaosMqoeIH8VperI" version="15.8.6" type="github">
  <diagram id="R2lEEEUBdFMjLlhIrx00" name="Page-1">
    <mxGraphModel dx="780" dy="1116" grid="1" gridSize="10" guides="1" tooltips="1" connect="1" arrows="1" fold="1" page="1" pageScale="1" pageWidth="850" pageHeight="1100" math="0" shadow="0" extFonts="Permanent Marker^https://fonts.googleapis.com/css?family=Permanent+Marker">
      <root>
        <mxCell id="0" />
        <mxCell id="1" parent="0" />
        <mxCell id="ZdWGNfyRv0KmOVRU79v5-1" value="User" style="whiteSpace=wrap;html=1;align=center;fillColor=#dae8fc;strokeColor=#6c8ebf;" parent="1" vertex="1">
          <mxGeometry x="140" y="370" width="100" height="40" as="geometry" />
        </mxCell>
        <mxCell id="ZdWGNfyRv0KmOVRU79v5-2" value="Charging Station" style="whiteSpace=wrap;html=1;align=center;fillColor=#dae8fc;strokeColor=#6c8ebf;" parent="1" vertex="1">
          <mxGeometry x="311.43" y="560" width="100" height="40" as="geometry" />
        </mxCell>
        <mxCell id="ZdWGNfyRv0KmOVRU79v5-3" value="Car" style="whiteSpace=wrap;html=1;align=center;fillColor=#dae8fc;strokeColor=#6c8ebf;" parent="1" vertex="1">
          <mxGeometry x="480" y="370" width="100" height="40" as="geometry" />
        </mxCell>
        <mxCell id="ZdWGNfyRv0KmOVRU79v5-7" value="drives" style="shape=rhombus;perimeter=rhombusPerimeter;whiteSpace=wrap;html=1;align=center;fillColor=#f8cecc;strokeColor=#b85450;" parent="1" vertex="1">
          <mxGeometry x="300" y="360" width="120" height="60" as="geometry" />
        </mxCell>
        <mxCell id="ZdWGNfyRv0KmOVRU79v5-8" value="" style="endArrow=none;html=1;rounded=0;exitX=1;exitY=0.5;exitDx=0;exitDy=0;entryX=0.5;entryY=0;entryDx=0;entryDy=0;startArrow=none;" parent="1" source="ZdWGNfyRv0KmOVRU79v5-11" target="ZdWGNfyRv0KmOVRU79v5-3" edge="1">
          <mxGeometry relative="1" as="geometry">
            <mxPoint x="190" y="250" as="sourcePoint" />
            <mxPoint x="530" y="280" as="targetPoint" />
            <Array as="points">
              <mxPoint x="530" y="280" />
            </Array>
          </mxGeometry>
        </mxCell>
        <mxCell id="ZdWGNfyRv0KmOVRU79v5-10" value="N" style="resizable=0;html=1;align=right;verticalAlign=bottom;" parent="ZdWGNfyRv0KmOVRU79v5-8" connectable="0" vertex="1">
          <mxGeometry x="1" relative="1" as="geometry">
            <mxPoint x="-10" y="-10" as="offset" />
          </mxGeometry>
        </mxCell>
        <mxCell id="ZdWGNfyRv0KmOVRU79v5-11" value="owns" style="shape=rhombus;perimeter=rhombusPerimeter;whiteSpace=wrap;html=1;align=center;fillColor=#f8cecc;strokeColor=#b85450;" parent="1" vertex="1">
          <mxGeometry x="300" y="250" width="120" height="60" as="geometry" />
        </mxCell>
        <mxCell id="ZdWGNfyRv0KmOVRU79v5-15" value="" style="endArrow=none;html=1;rounded=0;exitX=0.5;exitY=0;exitDx=0;exitDy=0;entryX=0;entryY=0.5;entryDx=0;entryDy=0;" parent="1" source="ZdWGNfyRv0KmOVRU79v5-1" target="ZdWGNfyRv0KmOVRU79v5-11" edge="1">
          <mxGeometry relative="1" as="geometry">
            <mxPoint x="190" y="370" as="sourcePoint" />
            <mxPoint x="530" y="370" as="targetPoint" />
            <Array as="points" />
          </mxGeometry>
        </mxCell>
        <mxCell id="ZdWGNfyRv0KmOVRU79v5-16" value="M" style="resizable=0;html=1;align=left;verticalAlign=bottom;" parent="ZdWGNfyRv0KmOVRU79v5-15" connectable="0" vertex="1">
          <mxGeometry x="-1" relative="1" as="geometry">
            <mxPoint y="-10" as="offset" />
          </mxGeometry>
        </mxCell>
        <mxCell id="ZdWGNfyRv0KmOVRU79v5-19" value="" style="endArrow=none;html=1;rounded=0;exitX=1;exitY=0.5;exitDx=0;exitDy=0;entryX=0;entryY=0.5;entryDx=0;entryDy=0;startArrow=none;" parent="1" source="ZdWGNfyRv0KmOVRU79v5-18" target="ZdWGNfyRv0KmOVRU79v5-2" edge="1">
          <mxGeometry relative="1" as="geometry">
            <mxPoint x="141.43" y="580" as="sourcePoint" />
            <mxPoint x="301.43" y="580" as="targetPoint" />
          </mxGeometry>
        </mxCell>
        <mxCell id="ZdWGNfyRv0KmOVRU79v5-21" value="N" style="resizable=0;html=1;align=right;verticalAlign=bottom;" parent="ZdWGNfyRv0KmOVRU79v5-19" connectable="0" vertex="1">
          <mxGeometry x="1" relative="1" as="geometry" />
        </mxCell>
        <mxCell id="ZdWGNfyRv0KmOVRU79v5-18" value="reviews" style="shape=rhombus;perimeter=rhombusPerimeter;whiteSpace=wrap;html=1;align=center;fillColor=#f8cecc;strokeColor=#b85450;" parent="1" vertex="1">
          <mxGeometry x="131.43" y="550" width="120" height="60" as="geometry" />
        </mxCell>
        <mxCell id="ZdWGNfyRv0KmOVRU79v5-23" value="" style="endArrow=none;html=1;rounded=0;exitX=0.5;exitY=1;exitDx=0;exitDy=0;" parent="1" source="ZdWGNfyRv0KmOVRU79v5-1" target="ZdWGNfyRv0KmOVRU79v5-18" edge="1">
          <mxGeometry relative="1" as="geometry">
            <mxPoint x="190" y="410" as="sourcePoint" />
            <mxPoint x="310" y="540" as="targetPoint" />
          </mxGeometry>
        </mxCell>
        <mxCell id="ZdWGNfyRv0KmOVRU79v5-24" value="M" style="resizable=0;html=1;align=left;verticalAlign=bottom;" parent="ZdWGNfyRv0KmOVRU79v5-23" connectable="0" vertex="1">
          <mxGeometry x="-1" relative="1" as="geometry">
            <mxPoint x="10" y="30" as="offset" />
          </mxGeometry>
        </mxCell>
        <mxCell id="ZdWGNfyRv0KmOVRU79v5-26" value="" style="endArrow=none;html=1;rounded=0;entryX=0.5;entryY=1;entryDx=0;entryDy=0;exitX=0.5;exitY=0;exitDx=0;exitDy=0;startArrow=none;" parent="1" source="ZdWGNfyRv0KmOVRU79v5-29" target="ZdWGNfyRv0KmOVRU79v5-3" edge="1">
          <mxGeometry relative="1" as="geometry">
            <mxPoint x="530" y="690" as="sourcePoint" />
            <mxPoint x="690" y="690" as="targetPoint" />
          </mxGeometry>
        </mxCell>
        <mxCell id="ZdWGNfyRv0KmOVRU79v5-27" value="1" style="resizable=0;html=1;align=right;verticalAlign=bottom;" parent="ZdWGNfyRv0KmOVRU79v5-26" connectable="0" vertex="1">
          <mxGeometry x="1" relative="1" as="geometry">
            <mxPoint x="-10" y="30" as="offset" />
          </mxGeometry>
        </mxCell>
        <mxCell id="ZdWGNfyRv0KmOVRU79v5-29" value="occupy" style="shape=rhombus;perimeter=rhombusPerimeter;whiteSpace=wrap;html=1;align=center;fillColor=#f8cecc;strokeColor=#b85450;" parent="1" vertex="1">
          <mxGeometry x="471.43" y="720" width="120" height="60" as="geometry" />
        </mxCell>
        <mxCell id="ZdWGNfyRv0KmOVRU79v5-32" value="has" style="shape=rhombus;double=1;perimeter=rhombusPerimeter;whiteSpace=wrap;html=1;align=center;fillColor=#f8cecc;strokeColor=#b85450;" parent="1" vertex="1">
          <mxGeometry x="600" y="360" width="120" height="60" as="geometry" />
        </mxCell>
        <mxCell id="ZdWGNfyRv0KmOVRU79v5-33" value="Health" style="shape=ext;margin=3;double=1;whiteSpace=wrap;html=1;align=center;fillColor=#dae8fc;strokeColor=#6c8ebf;" parent="1" vertex="1">
          <mxGeometry x="740" y="370" width="100" height="40" as="geometry" />
        </mxCell>
        <mxCell id="ZdWGNfyRv0KmOVRU79v5-34" value="" style="shape=link;html=1;rounded=0;" parent="1" source="ZdWGNfyRv0KmOVRU79v5-32" target="ZdWGNfyRv0KmOVRU79v5-33" edge="1">
          <mxGeometry relative="1" as="geometry">
            <mxPoint x="691.43" y="400" as="sourcePoint" />
            <mxPoint x="841.43" y="400" as="targetPoint" />
          </mxGeometry>
        </mxCell>
        <mxCell id="ZdWGNfyRv0KmOVRU79v5-35" value="N" style="resizable=0;html=1;align=right;verticalAlign=bottom;" parent="ZdWGNfyRv0KmOVRU79v5-34" connectable="0" vertex="1">
          <mxGeometry x="1" relative="1" as="geometry">
            <mxPoint x="-11" y="30" as="offset" />
          </mxGeometry>
        </mxCell>
        <mxCell id="ZdWGNfyRv0KmOVRU79v5-36" value="" style="endArrow=none;html=1;rounded=0;" parent="1" source="ZdWGNfyRv0KmOVRU79v5-32" target="ZdWGNfyRv0KmOVRU79v5-3" edge="1">
          <mxGeometry relative="1" as="geometry">
            <mxPoint x="400" y="770" as="sourcePoint" />
            <mxPoint x="560" y="770" as="targetPoint" />
          </mxGeometry>
        </mxCell>
        <mxCell id="ZdWGNfyRv0KmOVRU79v5-37" value="1" style="resizable=0;html=1;align=right;verticalAlign=bottom;" parent="ZdWGNfyRv0KmOVRU79v5-36" connectable="0" vertex="1">
          <mxGeometry x="1" relative="1" as="geometry">
            <mxPoint x="20" y="30" as="offset" />
          </mxGeometry>
        </mxCell>
        <mxCell id="ZdWGNfyRv0KmOVRU79v5-38" value="date" style="ellipse;whiteSpace=wrap;html=1;align=center;fillColor=#fff2cc;strokeColor=#d6b656;" parent="1" vertex="1">
          <mxGeometry x="90" y="680" width="100" height="40" as="geometry" />
        </mxCell>
        <mxCell id="ZdWGNfyRv0KmOVRU79v5-39" value="" style="endArrow=none;html=1;rounded=0;" parent="1" source="ZdWGNfyRv0KmOVRU79v5-38" target="ZdWGNfyRv0KmOVRU79v5-18" edge="1">
          <mxGeometry relative="1" as="geometry">
            <mxPoint x="129.99953381770518" y="641.4304661822948" as="sourcePoint" />
            <mxPoint x="211.43" y="660" as="targetPoint" />
          </mxGeometry>
        </mxCell>
        <mxCell id="ZdWGNfyRv0KmOVRU79v5-40" value="until" style="ellipse;whiteSpace=wrap;html=1;align=center;fillColor=#fff2cc;strokeColor=#d6b656;" parent="1" vertex="1">
          <mxGeometry x="550" y="790" width="100" height="40" as="geometry" />
        </mxCell>
        <mxCell id="ZdWGNfyRv0KmOVRU79v5-42" value="from" style="ellipse;whiteSpace=wrap;html=1;align=center;fillColor=#fff2cc;strokeColor=#d6b656;" parent="1" vertex="1">
          <mxGeometry x="425" y="790" width="100" height="40" as="geometry" />
        </mxCell>
        <mxCell id="ZdWGNfyRv0KmOVRU79v5-43" value="" style="endArrow=none;html=1;rounded=0;" parent="1" source="ZdWGNfyRv0KmOVRU79v5-29" target="ZdWGNfyRv0KmOVRU79v5-40" edge="1">
          <mxGeometry relative="1" as="geometry">
            <mxPoint x="411.43" y="630" as="sourcePoint" />
            <mxPoint x="571.43" y="630" as="targetPoint" />
          </mxGeometry>
        </mxCell>
        <mxCell id="ZdWGNfyRv0KmOVRU79v5-44" value="" style="endArrow=none;html=1;rounded=0;" parent="1" source="ZdWGNfyRv0KmOVRU79v5-42" target="ZdWGNfyRv0KmOVRU79v5-29" edge="1">
          <mxGeometry relative="1" as="geometry">
            <mxPoint x="361.43" y="640" as="sourcePoint" />
            <mxPoint x="521.43" y="640" as="targetPoint" />
          </mxGeometry>
        </mxCell>
        <mxCell id="ZdWGNfyRv0KmOVRU79v5-45" value="RSA" style="whiteSpace=wrap;html=1;align=center;fillColor=#dae8fc;strokeColor=#6c8ebf;" parent="1" vertex="1">
          <mxGeometry x="141.43" y="80" width="100" height="40" as="geometry" />
        </mxCell>
        <mxCell id="ZdWGNfyRv0KmOVRU79v5-51" value="Connector" style="shape=ext;margin=3;double=1;whiteSpace=wrap;html=1;align=center;fillColor=#dae8fc;strokeColor=#6c8ebf;" parent="1" vertex="1">
          <mxGeometry x="311.43" y="730" width="100" height="40" as="geometry" />
        </mxCell>
        <mxCell id="ZdWGNfyRv0KmOVRU79v5-52" value="" style="endArrow=none;html=1;rounded=0;" parent="1" source="ZdWGNfyRv0KmOVRU79v5-29" target="ZdWGNfyRv0KmOVRU79v5-51" edge="1">
          <mxGeometry relative="1" as="geometry">
            <mxPoint x="411.43" y="510" as="sourcePoint" />
            <mxPoint x="571.43" y="510" as="targetPoint" />
          </mxGeometry>
        </mxCell>
        <mxCell id="ZdWGNfyRv0KmOVRU79v5-53" value="1" style="resizable=0;html=1;align=right;verticalAlign=bottom;" parent="ZdWGNfyRv0KmOVRU79v5-52" connectable="0" vertex="1">
          <mxGeometry x="1" relative="1" as="geometry">
            <mxPoint x="20" y="-10" as="offset" />
          </mxGeometry>
        </mxCell>
        <mxCell id="ZdWGNfyRv0KmOVRU79v5-54" value="has" style="shape=rhombus;double=1;perimeter=rhombusPerimeter;whiteSpace=wrap;html=1;align=center;fillColor=#f8cecc;strokeColor=#b85450;" parent="1" vertex="1">
          <mxGeometry x="301.43" y="640" width="120" height="60" as="geometry" />
        </mxCell>
        <mxCell id="ZdWGNfyRv0KmOVRU79v5-55" value="" style="shape=link;html=1;rounded=0;" parent="1" source="ZdWGNfyRv0KmOVRU79v5-54" target="ZdWGNfyRv0KmOVRU79v5-51" edge="1">
          <mxGeometry relative="1" as="geometry">
            <mxPoint x="211.43" y="830" as="sourcePoint" />
            <mxPoint x="371.43" y="830" as="targetPoint" />
          </mxGeometry>
        </mxCell>
        <mxCell id="ZdWGNfyRv0KmOVRU79v5-56" value="N" style="resizable=0;html=1;align=right;verticalAlign=bottom;" parent="ZdWGNfyRv0KmOVRU79v5-55" connectable="0" vertex="1">
          <mxGeometry x="1" relative="1" as="geometry">
            <mxPoint x="-10" y="-10" as="offset" />
          </mxGeometry>
        </mxCell>
        <mxCell id="ZdWGNfyRv0KmOVRU79v5-57" value="" style="endArrow=none;html=1;rounded=0;" parent="1" source="ZdWGNfyRv0KmOVRU79v5-54" target="ZdWGNfyRv0KmOVRU79v5-2" edge="1">
          <mxGeometry relative="1" as="geometry">
            <mxPoint x="101.43" y="800" as="sourcePoint" />
            <mxPoint x="261.43" y="800" as="targetPoint" />
          </mxGeometry>
        </mxCell>
        <mxCell id="ZdWGNfyRv0KmOVRU79v5-58" value="1" style="resizable=0;html=1;align=right;verticalAlign=bottom;" parent="ZdWGNfyRv0KmOVRU79v5-57" connectable="0" vertex="1">
          <mxGeometry x="1" relative="1" as="geometry">
            <mxPoint y="20" as="offset" />
          </mxGeometry>
        </mxCell>
        <mxCell id="ZdWGNfyRv0KmOVRU79v5-63" value="caller_location" style="ellipse;whiteSpace=wrap;html=1;align=center;fillColor=#fff2cc;strokeColor=#d6b656;" parent="1" vertex="1">
          <mxGeometry x="201.43" y="240" width="100" height="40" as="geometry" />
        </mxCell>
        <mxCell id="ZdWGNfyRv0KmOVRU79v5-64" value="" style="endArrow=none;html=1;rounded=0;" parent="1" source="ZdWGNfyRv0KmOVRU79v5-46" target="ZdWGNfyRv0KmOVRU79v5-63" edge="1">
          <mxGeometry relative="1" as="geometry">
            <mxPoint x="-10" y="480" as="sourcePoint" />
            <mxPoint x="150" y="480" as="targetPoint" />
          </mxGeometry>
        </mxCell>
        <mxCell id="ZdWGNfyRv0KmOVRU79v5-66" value="userID" style="ellipse;whiteSpace=wrap;html=1;align=center;fontStyle=4;fillColor=#fff2cc;strokeColor=#d6b656;" parent="1" vertex="1">
          <mxGeometry x="20" y="280" width="100" height="40" as="geometry" />
        </mxCell>
        <mxCell id="ZdWGNfyRv0KmOVRU79v5-70" value="phoneNumber" style="ellipse;whiteSpace=wrap;html=1;align=center;fillColor=#fff2cc;strokeColor=#d6b656;" parent="1" vertex="1">
          <mxGeometry x="10" y="350" width="100" height="40" as="geometry" />
        </mxCell>
        <mxCell id="ZdWGNfyRv0KmOVRU79v5-71" value="" style="endArrow=none;html=1;rounded=0;" parent="1" source="ZdWGNfyRv0KmOVRU79v5-66" target="ZdWGNfyRv0KmOVRU79v5-1" edge="1">
          <mxGeometry relative="1" as="geometry">
            <mxPoint x="340" y="440" as="sourcePoint" />
            <mxPoint x="500" y="440" as="targetPoint" />
          </mxGeometry>
        </mxCell>
        <mxCell id="ZdWGNfyRv0KmOVRU79v5-72" value="" style="endArrow=none;html=1;rounded=0;" parent="1" source="ZdWGNfyRv0KmOVRU79v5-70" target="ZdWGNfyRv0KmOVRU79v5-1" edge="1">
          <mxGeometry relative="1" as="geometry">
            <mxPoint x="300" y="470" as="sourcePoint" />
            <mxPoint x="460" y="470" as="targetPoint" />
          </mxGeometry>
        </mxCell>
        <mxCell id="ZdWGNfyRv0KmOVRU79v5-75" value="" style="endArrow=none;html=1;rounded=0;" parent="1" source="ZdWGNfyRv0KmOVRU79v5-134" target="ZdWGNfyRv0KmOVRU79v5-1" edge="1">
          <mxGeometry relative="1" as="geometry">
            <mxPoint x="134.74265697987653" y="460.8891483594191" as="sourcePoint" />
            <mxPoint x="500" y="500" as="targetPoint" />
          </mxGeometry>
        </mxCell>
        <mxCell id="ZdWGNfyRv0KmOVRU79v5-79" value="" style="endArrow=none;html=1;rounded=0;" parent="1" source="ZdWGNfyRv0KmOVRU79v5-124" target="ZdWGNfyRv0KmOVRU79v5-2" edge="1">
          <mxGeometry relative="1" as="geometry">
            <mxPoint x="303.75744573674115" y="537.5981079531416" as="sourcePoint" />
            <mxPoint x="330" y="810" as="targetPoint" />
          </mxGeometry>
        </mxCell>
        <mxCell id="ZdWGNfyRv0KmOVRU79v5-80" value="stars" style="ellipse;whiteSpace=wrap;html=1;align=center;fillColor=#fff2cc;strokeColor=#d6b656;" parent="1" vertex="1">
          <mxGeometry x="50" y="610" width="100" height="40" as="geometry" />
        </mxCell>
        <mxCell id="ZdWGNfyRv0KmOVRU79v5-81" value="" style="endArrow=none;html=1;rounded=0;" parent="1" source="ZdWGNfyRv0KmOVRU79v5-80" target="ZdWGNfyRv0KmOVRU79v5-18" edge="1">
          <mxGeometry relative="1" as="geometry">
            <mxPoint x="50" y="620" as="sourcePoint" />
            <mxPoint x="210" y="560" as="targetPoint" />
          </mxGeometry>
        </mxCell>
        <mxCell id="ZdWGNfyRv0KmOVRU79v5-82" value="comment" style="ellipse;whiteSpace=wrap;html=1;align=center;fillColor=#fff2cc;strokeColor=#d6b656;" parent="1" vertex="1">
          <mxGeometry x="170" y="630" width="100" height="40" as="geometry" />
        </mxCell>
        <mxCell id="ZdWGNfyRv0KmOVRU79v5-83" value="" style="endArrow=none;html=1;rounded=0;" parent="1" source="ZdWGNfyRv0KmOVRU79v5-82" target="ZdWGNfyRv0KmOVRU79v5-18" edge="1">
          <mxGeometry relative="1" as="geometry">
            <mxPoint x="30" y="760" as="sourcePoint" />
            <mxPoint x="190" y="760" as="targetPoint" />
          </mxGeometry>
        </mxCell>
        <mxCell id="ZdWGNfyRv0KmOVRU79v5-84" value="meanStars" style="ellipse;whiteSpace=wrap;html=1;align=center;fillColor=#fff2cc;strokeColor=#d6b656;" parent="1" vertex="1">
          <mxGeometry x="400" y="510" width="100" height="40" as="geometry" />
        </mxCell>
        <mxCell id="ZdWGNfyRv0KmOVRU79v5-85" value="" style="endArrow=none;html=1;rounded=0;" parent="1" source="ZdWGNfyRv0KmOVRU79v5-84" target="ZdWGNfyRv0KmOVRU79v5-2" edge="1">
          <mxGeometry relative="1" as="geometry">
            <mxPoint x="40" y="750" as="sourcePoint" />
            <mxPoint x="200" y="750" as="targetPoint" />
          </mxGeometry>
        </mxCell>
        <mxCell id="ZdWGNfyRv0KmOVRU79v5-86" value="availability" style="ellipse;whiteSpace=wrap;html=1;align=center;fillColor=#fff2cc;strokeColor=#d6b656;" parent="1" vertex="1">
          <mxGeometry x="220" y="780" width="100" height="40" as="geometry" />
        </mxCell>
        <mxCell id="ZdWGNfyRv0KmOVRU79v5-87" value="" style="endArrow=none;html=1;rounded=0;" parent="1" source="ZdWGNfyRv0KmOVRU79v5-51" target="ZdWGNfyRv0KmOVRU79v5-86" edge="1">
          <mxGeometry relative="1" as="geometry">
            <mxPoint x="100" y="820" as="sourcePoint" />
            <mxPoint x="260" y="820" as="targetPoint" />
          </mxGeometry>
        </mxCell>
        <mxCell id="ZdWGNfyRv0KmOVRU79v5-88" value="name" style="ellipse;whiteSpace=wrap;html=1;align=center;fillColor=#fff2cc;strokeColor=#d6b656;" parent="1" vertex="1">
          <mxGeometry x="542.86" y="270" width="100" height="40" as="geometry" />
        </mxCell>
        <mxCell id="ZdWGNfyRv0KmOVRU79v5-90" value="photo" style="ellipse;whiteSpace=wrap;html=1;align=center;fillColor=#fff2cc;strokeColor=#d6b656;" parent="1" vertex="1">
          <mxGeometry x="591.43" y="430" width="100" height="40" as="geometry" />
        </mxCell>
        <mxCell id="ZdWGNfyRv0KmOVRU79v5-91" value="notes" style="ellipse;whiteSpace=wrap;html=1;align=center;fillColor=#fff2cc;strokeColor=#d6b656;" parent="1" vertex="1">
          <mxGeometry x="542.86" y="480" width="100" height="40" as="geometry" />
        </mxCell>
        <mxCell id="ZdWGNfyRv0KmOVRU79v5-92" value="" style="endArrow=none;html=1;rounded=0;" parent="1" source="ZdWGNfyRv0KmOVRU79v5-88" target="ZdWGNfyRv0KmOVRU79v5-3" edge="1">
          <mxGeometry relative="1" as="geometry">
            <mxPoint x="630" y="600" as="sourcePoint" />
            <mxPoint x="790" y="600" as="targetPoint" />
          </mxGeometry>
        </mxCell>
        <mxCell id="ZdWGNfyRv0KmOVRU79v5-93" value="" style="endArrow=none;html=1;rounded=0;" parent="1" source="ZdWGNfyRv0KmOVRU79v5-3" target="ZdWGNfyRv0KmOVRU79v5-144" edge="1">
          <mxGeometry relative="1" as="geometry">
            <mxPoint x="670" y="590" as="sourcePoint" />
            <mxPoint x="618.7652476222788" y="345.6173761888606" as="targetPoint" />
          </mxGeometry>
        </mxCell>
        <mxCell id="ZdWGNfyRv0KmOVRU79v5-94" value="" style="endArrow=none;html=1;rounded=0;" parent="1" source="ZdWGNfyRv0KmOVRU79v5-3" target="ZdWGNfyRv0KmOVRU79v5-90" edge="1">
          <mxGeometry relative="1" as="geometry">
            <mxPoint x="670" y="600" as="sourcePoint" />
            <mxPoint x="830" y="600" as="targetPoint" />
          </mxGeometry>
        </mxCell>
        <mxCell id="ZdWGNfyRv0KmOVRU79v5-95" value="" style="endArrow=none;html=1;rounded=0;" parent="1" source="ZdWGNfyRv0KmOVRU79v5-3" target="ZdWGNfyRv0KmOVRU79v5-91" edge="1">
          <mxGeometry relative="1" as="geometry">
            <mxPoint x="650" y="600" as="sourcePoint" />
            <mxPoint x="810" y="600" as="targetPoint" />
          </mxGeometry>
        </mxCell>
        <mxCell id="ZdWGNfyRv0KmOVRU79v5-96" value="batteryPercentage" style="ellipse;whiteSpace=wrap;html=1;align=center;fillColor=#fff2cc;strokeColor=#d6b656;" parent="1" vertex="1">
          <mxGeometry x="740" y="210" width="100" height="40" as="geometry" />
        </mxCell>
        <mxCell id="ZdWGNfyRv0KmOVRU79v5-97" value="batteryHealth" style="ellipse;whiteSpace=wrap;html=1;align=center;fillColor=#fff2cc;strokeColor=#d6b656;" parent="1" vertex="1">
          <mxGeometry x="650" y="480" width="100" height="40" as="geometry" />
        </mxCell>
        <mxCell id="ZdWGNfyRv0KmOVRU79v5-98" value="tirePressure" style="ellipse;whiteSpace=wrap;html=1;align=center;fillColor=#fff2cc;strokeColor=#d6b656;" parent="1" vertex="1">
          <mxGeometry x="680" y="560" width="100" height="40" as="geometry" />
        </mxCell>
        <mxCell id="ZdWGNfyRv0KmOVRU79v5-100" value="engineHealth" style="ellipse;whiteSpace=wrap;html=1;align=center;fillColor=#fff2cc;strokeColor=#d6b656;" parent="1" vertex="1">
          <mxGeometry x="690" y="260" width="100" height="40" as="geometry" />
        </mxCell>
        <mxCell id="ZdWGNfyRv0KmOVRU79v5-101" value="" style="endArrow=none;html=1;rounded=0;" parent="1" source="ZdWGNfyRv0KmOVRU79v5-33" target="ZdWGNfyRv0KmOVRU79v5-97" edge="1">
          <mxGeometry relative="1" as="geometry">
            <mxPoint x="783.3333333333333" y="410" as="sourcePoint" />
            <mxPoint x="860" y="650" as="targetPoint" />
          </mxGeometry>
        </mxCell>
        <mxCell id="ZdWGNfyRv0KmOVRU79v5-102" value="" style="endArrow=none;html=1;rounded=0;" parent="1" source="ZdWGNfyRv0KmOVRU79v5-98" target="ZdWGNfyRv0KmOVRU79v5-33" edge="1">
          <mxGeometry relative="1" as="geometry">
            <mxPoint x="720" y="640" as="sourcePoint" />
            <mxPoint x="792.6315789473683" y="410" as="targetPoint" />
          </mxGeometry>
        </mxCell>
        <mxCell id="ZdWGNfyRv0KmOVRU79v5-104" value="tireCondition" style="ellipse;whiteSpace=wrap;html=1;align=center;fillColor=#fff2cc;strokeColor=#d6b656;" parent="1" vertex="1">
          <mxGeometry x="740" y="620" width="100" height="40" as="geometry" />
        </mxCell>
        <mxCell id="ZdWGNfyRv0KmOVRU79v5-105" value="" style="endArrow=none;html=1;rounded=0;" parent="1" source="ZdWGNfyRv0KmOVRU79v5-104" target="ZdWGNfyRv0KmOVRU79v5-33" edge="1">
          <mxGeometry relative="1" as="geometry">
            <mxPoint x="880" y="540" as="sourcePoint" />
            <mxPoint x="799.2" y="410" as="targetPoint" />
          </mxGeometry>
        </mxCell>
        <mxCell id="ZdWGNfyRv0KmOVRU79v5-106" value="" style="endArrow=none;html=1;rounded=0;" parent="1" source="ZdWGNfyRv0KmOVRU79v5-100" target="ZdWGNfyRv0KmOVRU79v5-33" edge="1">
          <mxGeometry relative="1" as="geometry">
            <mxPoint x="740" y="340" as="sourcePoint" />
            <mxPoint x="789.090909090909" y="370" as="targetPoint" />
          </mxGeometry>
        </mxCell>
        <mxCell id="ZdWGNfyRv0KmOVRU79v5-107" value="" style="endArrow=none;html=1;rounded=0;" parent="1" source="ZdWGNfyRv0KmOVRU79v5-96" target="ZdWGNfyRv0KmOVRU79v5-33" edge="1">
          <mxGeometry relative="1" as="geometry">
            <mxPoint x="800" y="320" as="sourcePoint" />
            <mxPoint x="798.75" y="370" as="targetPoint" />
          </mxGeometry>
        </mxCell>
        <mxCell id="ZdWGNfyRv0KmOVRU79v5-112" value="" style="endArrow=none;html=1;rounded=0;" parent="1" source="ZdWGNfyRv0KmOVRU79v5-129" target="ZdWGNfyRv0KmOVRU79v5-45" edge="1">
          <mxGeometry relative="1" as="geometry">
            <mxPoint x="469.5078191849682" y="79.10023298809165" as="sourcePoint" />
            <mxPoint x="310" y="110" as="targetPoint" />
          </mxGeometry>
        </mxCell>
        <mxCell id="ZdWGNfyRv0KmOVRU79v5-114" value="" style="endArrow=none;html=1;rounded=0;" parent="1" source="ZdWGNfyRv0KmOVRU79v5-45" target="ZdWGNfyRv0KmOVRU79v5-152" edge="1">
          <mxGeometry relative="1" as="geometry">
            <mxPoint x="510" y="160" as="sourcePoint" />
            <mxPoint x="254.7805141634633" y="28.89679089340325" as="targetPoint" />
          </mxGeometry>
        </mxCell>
        <mxCell id="ZdWGNfyRv0KmOVRU79v5-115" value="name" style="ellipse;whiteSpace=wrap;html=1;align=center;fillColor=#fff2cc;strokeColor=#d6b656;" parent="1" vertex="1">
          <mxGeometry x="20" y="90" width="100" height="40" as="geometry" />
        </mxCell>
        <mxCell id="ZdWGNfyRv0KmOVRU79v5-116" value="" style="endArrow=none;html=1;rounded=0;" parent="1" source="ZdWGNfyRv0KmOVRU79v5-115" target="ZdWGNfyRv0KmOVRU79v5-45" edge="1">
          <mxGeometry relative="1" as="geometry">
            <mxPoint x="190" y="140" as="sourcePoint" />
            <mxPoint x="350" y="140" as="targetPoint" />
          </mxGeometry>
        </mxCell>
        <mxCell id="ZdWGNfyRv0KmOVRU79v5-124" value="&lt;u&gt;location&lt;/u&gt;" style="ellipse;whiteSpace=wrap;html=1;align=center;fillColor=#fff2cc;strokeColor=#d6b656;" parent="1" vertex="1">
          <mxGeometry x="280" y="510" width="100" height="40" as="geometry" />
        </mxCell>
        <mxCell id="ZdWGNfyRv0KmOVRU79v5-125" value="latitude" style="ellipse;whiteSpace=wrap;html=1;align=center;fillColor=#fff2cc;strokeColor=#d6b656;fontStyle=4" parent="1" vertex="1">
          <mxGeometry x="230" y="460" width="100" height="40" as="geometry" />
        </mxCell>
        <mxCell id="ZdWGNfyRv0KmOVRU79v5-126" value="longtidude" style="ellipse;whiteSpace=wrap;html=1;align=center;fillColor=#fff2cc;strokeColor=#d6b656;fontStyle=4" parent="1" vertex="1">
          <mxGeometry x="340" y="460" width="100" height="40" as="geometry" />
        </mxCell>
        <mxCell id="ZdWGNfyRv0KmOVRU79v5-127" value="" style="endArrow=none;html=1;rounded=0;" parent="1" source="ZdWGNfyRv0KmOVRU79v5-124" target="ZdWGNfyRv0KmOVRU79v5-126" edge="1">
          <mxGeometry relative="1" as="geometry">
            <mxPoint x="460" y="650" as="sourcePoint" />
            <mxPoint x="620" y="650" as="targetPoint" />
          </mxGeometry>
        </mxCell>
        <mxCell id="ZdWGNfyRv0KmOVRU79v5-128" value="" style="endArrow=none;html=1;rounded=0;" parent="1" source="ZdWGNfyRv0KmOVRU79v5-124" target="ZdWGNfyRv0KmOVRU79v5-125" edge="1">
          <mxGeometry relative="1" as="geometry">
            <mxPoint x="460" y="620" as="sourcePoint" />
            <mxPoint x="620" y="620" as="targetPoint" />
          </mxGeometry>
        </mxCell>
        <mxCell id="ZdWGNfyRv0KmOVRU79v5-129" value="location" style="ellipse;whiteSpace=wrap;html=1;align=center;fillColor=#fff2cc;strokeColor=#d6b656;" parent="1" vertex="1">
          <mxGeometry x="270" y="70" width="100" height="40" as="geometry" />
        </mxCell>
        <mxCell id="ZdWGNfyRv0KmOVRU79v5-130" value="latitude" style="ellipse;whiteSpace=wrap;html=1;align=center;fillColor=#fff2cc;strokeColor=#d6b656;fontStyle=0" parent="1" vertex="1">
          <mxGeometry x="369.9999999999999" y="30" width="100" height="40" as="geometry" />
        </mxCell>
        <mxCell id="ZdWGNfyRv0KmOVRU79v5-131" value="longtidude" style="ellipse;whiteSpace=wrap;html=1;align=center;fillColor=#fff2cc;strokeColor=#d6b656;" parent="1" vertex="1">
          <mxGeometry x="381.4299999999999" y="110" width="100" height="40" as="geometry" />
        </mxCell>
        <mxCell id="ZdWGNfyRv0KmOVRU79v5-132" value="" style="endArrow=none;html=1;rounded=0;" parent="1" source="ZdWGNfyRv0KmOVRU79v5-129" target="ZdWGNfyRv0KmOVRU79v5-131" edge="1">
          <mxGeometry relative="1" as="geometry">
            <mxPoint x="771.43" y="235" as="sourcePoint" />
            <mxPoint x="931.43" y="235" as="targetPoint" />
          </mxGeometry>
        </mxCell>
        <mxCell id="ZdWGNfyRv0KmOVRU79v5-133" value="" style="endArrow=none;html=1;rounded=0;" parent="1" source="ZdWGNfyRv0KmOVRU79v5-129" target="ZdWGNfyRv0KmOVRU79v5-130" edge="1">
          <mxGeometry relative="1" as="geometry">
            <mxPoint x="771.43" y="205" as="sourcePoint" />
            <mxPoint x="931.43" y="205" as="targetPoint" />
          </mxGeometry>
        </mxCell>
        <mxCell id="ZdWGNfyRv0KmOVRU79v5-134" value="location" style="ellipse;whiteSpace=wrap;html=1;align=center;fillColor=#fff2cc;strokeColor=#d6b656;" parent="1" vertex="1">
          <mxGeometry x="50" y="420" width="100" height="40" as="geometry" />
        </mxCell>
        <mxCell id="ZdWGNfyRv0KmOVRU79v5-135" value="latitude" style="ellipse;whiteSpace=wrap;html=1;align=center;fillColor=#fff2cc;strokeColor=#d6b656;" parent="1" vertex="1">
          <mxGeometry x="10" y="470" width="100" height="40" as="geometry" />
        </mxCell>
        <mxCell id="ZdWGNfyRv0KmOVRU79v5-136" value="longtidude" style="ellipse;whiteSpace=wrap;html=1;align=center;fillColor=#fff2cc;strokeColor=#d6b656;" parent="1" vertex="1">
          <mxGeometry x="80" y="510" width="100" height="40" as="geometry" />
        </mxCell>
        <mxCell id="ZdWGNfyRv0KmOVRU79v5-137" value="" style="endArrow=none;html=1;rounded=0;" parent="1" source="ZdWGNfyRv0KmOVRU79v5-134" target="ZdWGNfyRv0KmOVRU79v5-136" edge="1">
          <mxGeometry relative="1" as="geometry">
            <mxPoint x="250" y="590" as="sourcePoint" />
            <mxPoint x="410" y="590" as="targetPoint" />
          </mxGeometry>
        </mxCell>
        <mxCell id="ZdWGNfyRv0KmOVRU79v5-138" value="" style="endArrow=none;html=1;rounded=0;" parent="1" source="ZdWGNfyRv0KmOVRU79v5-134" target="ZdWGNfyRv0KmOVRU79v5-135" edge="1">
          <mxGeometry relative="1" as="geometry">
            <mxPoint x="250" y="560" as="sourcePoint" />
            <mxPoint x="410" y="560" as="targetPoint" />
          </mxGeometry>
        </mxCell>
        <mxCell id="ZdWGNfyRv0KmOVRU79v5-144" value="lisenceNumber" style="ellipse;whiteSpace=wrap;html=1;align=center;fontStyle=4;fillColor=#fff2cc;strokeColor=#d6b656;" parent="1" vertex="1">
          <mxGeometry x="610" y="310" width="100" height="40" as="geometry" />
        </mxCell>
        <mxCell id="ZdWGNfyRv0KmOVRU79v5-145" value="&lt;span style=&quot;border-bottom: 1px dotted&quot;&gt;connectorID&lt;/span&gt;" style="ellipse;whiteSpace=wrap;html=1;align=center;fillColor=#fff2cc;strokeColor=#d6b656;" parent="1" vertex="1">
          <mxGeometry x="320" y="830" width="100" height="40" as="geometry" />
        </mxCell>
        <mxCell id="ZdWGNfyRv0KmOVRU79v5-146" value="" style="endArrow=none;html=1;rounded=0;" parent="1" source="ZdWGNfyRv0KmOVRU79v5-51" target="ZdWGNfyRv0KmOVRU79v5-145" edge="1">
          <mxGeometry relative="1" as="geometry">
            <mxPoint x="50" y="850" as="sourcePoint" />
            <mxPoint x="210" y="850" as="targetPoint" />
          </mxGeometry>
        </mxCell>
        <mxCell id="ZdWGNfyRv0KmOVRU79v5-148" value="companyName" style="ellipse;whiteSpace=wrap;html=1;align=center;fontStyle=4;fillColor=#fff2cc;strokeColor=#d6b656;" parent="1" vertex="1">
          <mxGeometry x="425" y="570" width="100" height="40" as="geometry" />
        </mxCell>
        <mxCell id="ZdWGNfyRv0KmOVRU79v5-149" value="" style="endArrow=none;html=1;rounded=0;" parent="1" source="ZdWGNfyRv0KmOVRU79v5-2" target="ZdWGNfyRv0KmOVRU79v5-148" edge="1">
          <mxGeometry relative="1" as="geometry">
            <mxPoint x="30" y="770" as="sourcePoint" />
            <mxPoint x="190" y="770" as="targetPoint" />
          </mxGeometry>
        </mxCell>
        <mxCell id="ZdWGNfyRv0KmOVRU79v5-152" value="phoneNumber" style="ellipse;whiteSpace=wrap;html=1;align=center;fontStyle=4;fillColor=#fff2cc;strokeColor=#d6b656;" parent="1" vertex="1">
          <mxGeometry x="20" y="20" width="100" height="40" as="geometry" />
        </mxCell>
        <mxCell id="kWEfYQdw3QmrjEnDfTO9-1" value="estimatedUntil" style="ellipse;whiteSpace=wrap;html=1;align=center;dashed=1;fillColor=#fff2cc;strokeColor=#d6b656;" parent="1" vertex="1">
          <mxGeometry x="481.43" y="850" width="100" height="40" as="geometry" />
        </mxCell>
        <mxCell id="kWEfYQdw3QmrjEnDfTO9-2" value="" style="endArrow=none;html=1;rounded=0;" parent="1" source="ZdWGNfyRv0KmOVRU79v5-29" target="kWEfYQdw3QmrjEnDfTO9-1" edge="1">
          <mxGeometry relative="1" as="geometry">
            <mxPoint x="400" y="970" as="sourcePoint" />
            <mxPoint x="560" y="970" as="targetPoint" />
          </mxGeometry>
        </mxCell>
        <mxCell id="hMkpPP0iQA8l5FLWT4Cf-2" value="latitude" style="ellipse;whiteSpace=wrap;html=1;align=center;fillColor=#fff2cc;strokeColor=#d6b656;" parent="1" vertex="1">
          <mxGeometry x="269.9999999999999" y="190" width="100" height="40" as="geometry" />
        </mxCell>
        <mxCell id="hMkpPP0iQA8l5FLWT4Cf-3" value="longtidude" style="ellipse;whiteSpace=wrap;html=1;align=center;fillColor=#fff2cc;strokeColor=#d6b656;" parent="1" vertex="1">
          <mxGeometry x="201.4299999999999" y="150" width="100" height="40" as="geometry" />
        </mxCell>
        <mxCell id="hMkpPP0iQA8l5FLWT4Cf-4" value="" style="endArrow=none;html=1;rounded=0;" parent="1" source="hMkpPP0iQA8l5FLWT4Cf-2" target="ZdWGNfyRv0KmOVRU79v5-63" edge="1">
          <mxGeometry relative="1" as="geometry">
            <mxPoint x="200" y="220" as="sourcePoint" />
            <mxPoint x="360" y="220" as="targetPoint" />
          </mxGeometry>
        </mxCell>
        <mxCell id="hMkpPP0iQA8l5FLWT4Cf-5" value="" style="endArrow=none;html=1;rounded=0;" parent="1" source="ZdWGNfyRv0KmOVRU79v5-63" target="hMkpPP0iQA8l5FLWT4Cf-3" edge="1">
          <mxGeometry relative="1" as="geometry">
            <mxPoint x="400" y="250" as="sourcePoint" />
            <mxPoint x="560" y="250" as="targetPoint" />
          </mxGeometry>
        </mxCell>
        <mxCell id="hMkpPP0iQA8l5FLWT4Cf-6" value="date" style="ellipse;whiteSpace=wrap;html=1;align=center;fillColor=#fff2cc;strokeColor=#d6b656;" parent="1" vertex="1">
          <mxGeometry x="50" y="160" width="100" height="40" as="geometry" />
        </mxCell>
        <mxCell id="hMkpPP0iQA8l5FLWT4Cf-7" value="" style="endArrow=none;html=1;rounded=0;" parent="1" source="ZdWGNfyRv0KmOVRU79v5-46" target="hMkpPP0iQA8l5FLWT4Cf-6" edge="1">
          <mxGeometry relative="1" as="geometry">
            <mxPoint x="250" y="270" as="sourcePoint" />
            <mxPoint x="410" y="270" as="targetPoint" />
          </mxGeometry>
        </mxCell>
        <mxCell id="hMkpPP0iQA8l5FLWT4Cf-8" value="" style="endArrow=none;html=1;rounded=0;startArrow=none;" parent="1" source="ZdWGNfyRv0KmOVRU79v5-46" target="ZdWGNfyRv0KmOVRU79v5-45" edge="1">
          <mxGeometry relative="1" as="geometry">
            <mxPoint x="50" y="210" as="sourcePoint" />
            <mxPoint x="210" y="210" as="targetPoint" />
          </mxGeometry>
        </mxCell>
        <mxCell id="hMkpPP0iQA8l5FLWT4Cf-10" value="N" style="resizable=0;html=1;align=right;verticalAlign=bottom;" parent="hMkpPP0iQA8l5FLWT4Cf-8" connectable="0" vertex="1">
          <mxGeometry x="1" relative="1" as="geometry">
            <mxPoint x="19" y="20" as="offset" />
          </mxGeometry>
        </mxCell>
        <mxCell id="ZdWGNfyRv0KmOVRU79v5-46" value="calls" style="shape=rhombus;perimeter=rhombusPerimeter;whiteSpace=wrap;html=1;align=center;fillColor=#f8cecc;strokeColor=#b85450;" parent="1" vertex="1">
          <mxGeometry x="131.43" y="190" width="120" height="60" as="geometry" />
        </mxCell>
        <mxCell id="hMkpPP0iQA8l5FLWT4Cf-11" value="" style="endArrow=none;html=1;rounded=0;" parent="1" source="ZdWGNfyRv0KmOVRU79v5-1" target="ZdWGNfyRv0KmOVRU79v5-46" edge="1">
          <mxGeometry relative="1" as="geometry">
            <mxPoint x="200.08411764705886" y="370" as="sourcePoint" />
            <mxPoint x="351.3458823529413" y="70" as="targetPoint" />
          </mxGeometry>
        </mxCell>
        <mxCell id="hMkpPP0iQA8l5FLWT4Cf-12" value="M" style="resizable=0;html=1;align=left;verticalAlign=bottom;" parent="hMkpPP0iQA8l5FLWT4Cf-11" connectable="0" vertex="1">
          <mxGeometry x="-1" relative="1" as="geometry">
            <mxPoint x="15" as="offset" />
          </mxGeometry>
        </mxCell>
        <mxCell id="hMkpPP0iQA8l5FLWT4Cf-14" value="healthTimestamp" style="ellipse;whiteSpace=wrap;html=1;align=center;fontStyle=4;fillColor=#fff2cc;strokeColor=#d6b656;" parent="1" vertex="1">
          <mxGeometry x="590" y="220" width="100" height="40" as="geometry" />
        </mxCell>
        <mxCell id="hMkpPP0iQA8l5FLWT4Cf-15" value="" style="endArrow=none;html=1;rounded=0;" parent="1" source="hMkpPP0iQA8l5FLWT4Cf-14" target="ZdWGNfyRv0KmOVRU79v5-33" edge="1">
          <mxGeometry relative="1" as="geometry">
            <mxPoint x="590" y="110" as="sourcePoint" />
            <mxPoint x="750" y="110" as="targetPoint" />
          </mxGeometry>
        </mxCell>
        <mxCell id="eYGHN3Ph9fZ2Ezo1Wk5X-1" value="availability" style="ellipse;whiteSpace=wrap;html=1;align=center;fillColor=#fff2cc;strokeColor=#d6b656;" parent="1" vertex="1">
          <mxGeometry x="220" y="780" width="100" height="40" as="geometry" />
        </mxCell>
        <mxCell id="eYGHN3Ph9fZ2Ezo1Wk5X-2" value="connectorType" style="ellipse;whiteSpace=wrap;html=1;align=center;fillColor=#fff2cc;strokeColor=#d6b656;" parent="1" vertex="1">
          <mxGeometry x="180" y="720" width="100" height="40" as="geometry" />
        </mxCell>
        <mxCell id="eYGHN3Ph9fZ2Ezo1Wk5X-3" value="" style="endArrow=none;html=1;rounded=0;" parent="1" source="eYGHN3Ph9fZ2Ezo1Wk5X-2" target="ZdWGNfyRv0KmOVRU79v5-51" edge="1">
          <mxGeometry relative="1" as="geometry">
            <mxPoint x="120" y="890" as="sourcePoint" />
            <mxPoint x="280" y="890" as="targetPoint" />
          </mxGeometry>
        </mxCell>
        <mxCell id="V7Fx2JdwHDXDvCGUwGMa-1" value="&lt;div&gt;timestamp&lt;/div&gt;" style="ellipse;whiteSpace=wrap;html=1;align=center;fillColor=#fff2cc;strokeColor=#d6b656;" parent="1" vertex="1">
          <mxGeometry x="31.43" y="220" width="100" height="40" as="geometry" />
        </mxCell>
        <mxCell id="V7Fx2JdwHDXDvCGUwGMa-2" value="" style="endArrow=none;html=1;rounded=0;" parent="1" source="V7Fx2JdwHDXDvCGUwGMa-1" target="ZdWGNfyRv0KmOVRU79v5-46" edge="1">
          <mxGeometry relative="1" as="geometry">
            <mxPoint x="40" y="240" as="sourcePoint" />
            <mxPoint x="200" y="240" as="targetPoint" />
          </mxGeometry>
        </mxCell>
        <mxCell id="URgAk3GFcBjNY2u_oAa1-2" value="" style="shape=link;html=1;rounded=0;" parent="1" source="ZdWGNfyRv0KmOVRU79v5-7" target="ZdWGNfyRv0KmOVRU79v5-3" edge="1">
          <mxGeometry relative="1" as="geometry">
            <mxPoint x="300" y="440" as="sourcePoint" />
            <mxPoint x="460" y="440" as="targetPoint" />
          </mxGeometry>
        </mxCell>
        <mxCell id="URgAk3GFcBjNY2u_oAa1-3" value="N" style="resizable=0;html=1;align=right;verticalAlign=bottom;" parent="URgAk3GFcBjNY2u_oAa1-2" connectable="0" vertex="1">
          <mxGeometry x="1" relative="1" as="geometry" />
        </mxCell>
        <mxCell id="URgAk3GFcBjNY2u_oAa1-4" value="" style="endArrow=none;html=1;rounded=0;" parent="1" source="ZdWGNfyRv0KmOVRU79v5-7" target="ZdWGNfyRv0KmOVRU79v5-1" edge="1">
          <mxGeometry relative="1" as="geometry">
            <mxPoint x="90" y="900" as="sourcePoint" />
            <mxPoint x="250" y="900" as="targetPoint" />
          </mxGeometry>
        </mxCell>
        <mxCell id="URgAk3GFcBjNY2u_oAa1-5" value="Μ" style="resizable=0;html=1;align=right;verticalAlign=bottom;" parent="URgAk3GFcBjNY2u_oAa1-4" connectable="0" vertex="1">
          <mxGeometry x="1" relative="1" as="geometry">
            <mxPoint x="20" as="offset" />
          </mxGeometry>
        </mxCell>
      </root>
    </mxGraphModel>
  </diagram>
</mxfile>
